<svg width="111" height="41" viewBox="0 0 111 41" fill="none" xmlns="http://www.w3.org/2000/svg">
<mask id="mask0_3760_1104" style="mask-type:luminance" maskUnits="userSpaceOnUse" x="1" y="0" width="110" height="41">
<path d="M111 0.404053H1.21387V40.9988H111V0.404053Z" fill="white"/>
</mask>
<g mask="url(#mask0_3760_1104)">
<path opacity="0.4" d="M39.243 9.45145C39.1802 9.45235 39.1175 9.45687 39.0552 9.46498L39.2162 9.36349C39.2162 9.36349 39.2363 9.42439 39.243 9.45822V9.45145Z" fill="white"/>
<path d="M39.156 10.5893L39.1426 10.6163L39.1157 10.6908L35.9282 18.4524C35.8947 18.5336 35.8544 18.6148 35.8208 18.6893C35.8074 18.7299 35.7805 18.7637 35.7604 18.8111C35.7403 18.8517 35.7201 18.8855 35.7067 18.9193C35.6799 18.9734 35.6463 19.0276 35.6195 19.0885C35.6092 19.1058 35.6002 19.1239 35.5927 19.1426C35.5524 19.2103 35.5121 19.278 35.4652 19.3456V19.3524C34.8661 20.2832 34 21.0078 32.9822 21.4298H32.9621L28.372 23.372L28.1438 23.4667L24.5872 24.969L23.1981 28.4066L22.7821 29.4419L21.2386 33.2719C20.8204 34.2964 20.1045 35.1692 19.1851 35.7757H19.1717C19.1046 35.8231 19.0375 35.8637 18.9704 35.9042L18.9167 35.9381C18.863 35.9652 18.8094 35.9991 18.7557 36.0261C18.719 36.0469 18.6808 36.065 18.6415 36.0802C18.6013 36.1005 18.5677 36.1208 18.5275 36.1411C18.4537 36.1817 18.3665 36.2156 18.2926 36.2494L11.8034 38.9561L10.5418 39.4839L10.4881 39.5043C10.2391 39.608 9.97053 39.655 9.70145 39.6421C9.43238 39.6293 9.16942 39.5568 8.93126 39.4298L8.26019 39.0712L8.14613 39.0103L0.985857 35.1802C0.755967 35.0579 0.575767 34.8583 0.476489 34.6161C0.37721 34.3738 0.36511 34.1042 0.442285 33.8539L2.56285 26.884L2.86483 25.9028L3.00573 25.4426C3.16678 24.9043 3.16678 24.3299 3.00573 23.7915L2.86483 23.3178L2.55614 22.3096L0.428866 15.3937C0.353894 15.1434 0.367053 14.8746 0.466113 14.6328C0.565173 14.3911 0.744045 14.1914 0.97243 14.0674L7.53544 10.5621L8.24006 10.1832L8.68296 9.94636C9.17706 9.68161 9.58136 9.27393 9.84393 8.7757L10.0653 8.35615L10.2734 7.9569L13.924 1.00051C14.0464 0.769753 14.2445 0.588983 14.4844 0.489029C14.7242 0.389074 14.991 0.376126 15.2393 0.452392L23.1041 2.88848H23.1243L23.5806 3.03733C24.1145 3.19974 24.6841 3.19974 25.218 3.03733L25.6944 2.89525L26.5132 2.63811L33.5526 0.459158C33.8009 0.381991 34.068 0.394507 34.3081 0.494552C34.5482 0.594597 34.7462 0.775911 34.8679 1.00728L38.0756 7.10427L38.7265 8.34938L39.0755 9.01927C39.2014 9.25945 39.2732 9.52463 39.286 9.79598C39.2987 10.0673 39.2521 10.3382 39.1493 10.5893H39.156Z" fill="url(#paint0_linear_3760_1104)"/>
<path d="M39.214 8.61521L38.865 7.94532L38.2142 6.70024L34.9997 0.603244C34.878 0.371877 34.68 0.190565 34.4399 0.09052C34.1998 -0.00952451 33.9327 -0.0220422 33.6844 0.0551218L26.645 2.23407L25.8262 2.49121L25.3498 2.63329C24.8159 2.7957 24.2463 2.7957 23.7124 2.63329L23.2561 2.49121H23.2359L15.3711 0.048356C15.1228 -0.0272527 14.8562 -0.0139877 14.6165 0.0859041C14.3768 0.185796 14.1787 0.366173 14.0558 0.596478L10.4052 7.5461L10.1971 7.94535L9.97572 8.36489C9.71703 8.86599 9.31171 9.2747 8.81477 9.53555L8.37186 9.77244L7.66724 10.1513L1.10423 13.6633C0.875408 13.7868 0.696154 13.9865 0.597033 14.2284C0.497912 14.4703 0.485061 14.7393 0.560672 14.9897L2.66782 21.919L2.9765 22.9273L3.1174 23.401C3.27846 23.9394 3.27846 24.5137 3.1174 25.0521L2.9765 25.5123L2.67453 26.4935L0.553954 33.4633C0.477425 33.7137 0.489835 33.9831 0.589048 34.2252C0.688262 34.4672 0.86807 34.6669 1.09752 34.7897L8.25779 38.6198L8.37185 38.6807L9.04292 39.0393C9.28108 39.1662 9.54404 39.2387 9.81312 39.2516C10.0822 39.2645 10.3508 39.2174 10.5998 39.1138L10.6535 39.0934L11.9151 38.5656L18.4043 35.8589C18.4844 35.8269 18.5628 35.7907 18.6391 35.7506C18.6794 35.7303 18.7129 35.71 18.7532 35.6897C18.7899 35.6689 18.828 35.6508 18.8673 35.6356C18.921 35.6085 18.9747 35.5747 19.0284 35.5476L19.0821 35.5137C19.1492 35.4731 19.2162 35.4325 19.2833 35.3852H19.2968C20.2179 34.7807 20.9343 33.9072 21.3502 32.8814L22.8937 29.0514L23.3097 28.016L24.6989 24.5784L28.2555 23.0762L28.4837 22.9814L33.0738 21.0461H33.0939C34.1107 20.6192 34.9761 19.8928 35.5768 18.9619V18.9551C35.6171 18.8875 35.6574 18.8198 35.7043 18.7521C35.7172 18.7363 35.7264 18.7178 35.7312 18.6979C35.758 18.637 35.7915 18.5897 35.8184 18.5288C35.8389 18.4941 35.8569 18.4579 35.8721 18.4205L35.9324 18.2988C35.9727 18.2175 36.0063 18.1363 36.0399 18.0619L39.2274 10.3002L39.2543 10.2258L39.2677 10.1987C39.3704 9.94764 39.4171 9.67679 39.4044 9.40545C39.3916 9.1341 39.3197 8.86892 39.1939 8.62874L39.214 8.61521ZM25.4371 3.69573C25.4948 3.57147 25.5778 3.46086 25.6807 3.37108C25.7836 3.28131 25.9041 3.21439 26.0343 3.17467L33.8991 0.738585C33.9887 0.708139 34.0861 0.71121 34.1736 0.747237C34.2611 0.783265 34.3328 0.849841 34.3756 0.934793L38.2275 8.26339C38.294 8.38437 38.3333 8.51861 38.3425 8.6566C38.3518 8.79459 38.3309 8.93295 38.2812 9.06186C38.2356 9.19076 38.1636 9.30857 38.07 9.40765C37.9764 9.50673 37.8631 9.58488 37.7376 9.63704L29.6178 13.0273C29.5402 13.0595 29.4572 13.0759 29.3733 13.0756C29.2895 13.0753 29.2065 13.0583 29.1292 13.0256C29.0519 12.9929 28.9818 12.9451 28.9228 12.885C28.8638 12.8249 28.8172 12.7537 28.7856 12.6754L28.3427 11.5927C28.3427 11.5927 28.3293 11.5589 28.3226 11.5453L25.4236 4.48745C25.3737 4.36216 25.3497 4.22787 25.3531 4.09287C25.3566 3.95787 25.3874 3.82501 25.4438 3.70249L25.4371 3.69573ZM24.7592 4.75813V4.77166L27.6717 11.8634C28.1546 13.0549 28.1618 14.3885 27.6918 15.5852L24.719 22.819C24.7026 22.8553 24.6761 22.8861 24.6428 22.9078C24.6095 22.9294 24.5707 22.9409 24.5311 22.9409C24.488 22.941 24.4458 22.9282 24.41 22.9041C24.3741 22.88 24.3462 22.8457 24.3298 22.8055L21.404 15.6731L21.3838 15.6325C20.8882 14.4085 20.893 13.0365 21.3973 11.816L21.8133 10.801L24.2962 4.75812C24.3152 4.71296 24.347 4.67444 24.3876 4.64737C24.4281 4.62029 24.4757 4.60585 24.5244 4.60585C24.573 4.60585 24.6206 4.62029 24.6612 4.64737C24.7017 4.67444 24.7335 4.71296 24.7525 4.75812L24.7592 4.75813ZM10.8347 8.27015L14.6866 0.934819C14.7216 0.870234 14.7729 0.816167 14.8354 0.778132C14.8979 0.740097 14.9693 0.719456 15.0423 0.718313C15.0808 0.715712 15.1194 0.720299 15.1563 0.731845L23.0213 3.1679C23.1509 3.20878 23.2709 3.27614 23.3736 3.36578C23.4764 3.45542 23.5597 3.56543 23.6185 3.68895C23.678 3.81293 23.7106 3.9483 23.7141 4.08601C23.7176 4.22372 23.6919 4.36058 23.6386 4.48745L20.7396 11.5386L20.2699 12.6754C20.2032 12.8326 20.0778 12.957 19.9208 13.0216C19.7637 13.0862 19.5878 13.0858 19.4311 13.0205L18.3372 12.5604C18.3276 12.5573 18.3185 12.5527 18.3103 12.5468L11.3178 9.62351C11.1924 9.57134 11.0791 9.49318 10.9855 9.3941C10.8919 9.29502 10.8199 9.17723 10.7743 9.04833C10.728 8.91873 10.7089 8.78086 10.7181 8.64342C10.7274 8.50599 10.7648 8.37198 10.828 8.24986L10.8347 8.27015ZM11.0494 10.3002H11.0561L18.0755 13.2371C19.274 13.7431 20.2281 14.7027 20.7329 15.91C20.7343 15.9244 20.7389 15.9383 20.7463 15.9506L23.6722 23.0829C23.6877 23.1228 23.6915 23.1663 23.6832 23.2083C23.6748 23.2503 23.6547 23.289 23.6252 23.3197C23.5959 23.3514 23.5575 23.373 23.5153 23.3815C23.4732 23.3901 23.4295 23.385 23.3903 23.3672L16.3173 20.41C16.3026 20.4026 16.2867 20.398 16.2703 20.3965C15.0665 19.881 14.112 18.9087 13.6129 17.6897L10.7139 10.6318C10.6956 10.5863 10.6909 10.5365 10.7005 10.4884C10.7102 10.4403 10.7337 10.3962 10.768 10.3615C10.8024 10.3269 10.8462 10.3032 10.8939 10.2935C10.9416 10.2838 10.991 10.2885 11.036 10.307L11.0494 10.3002ZM23.2628 24.2265C23.2634 24.2693 23.2509 24.3111 23.2268 24.3463C23.2028 24.3815 23.1684 24.4082 23.1286 24.4228L16.0556 27.3799L16.0153 27.4002C14.8008 27.8966 13.4415 27.8918 12.2305 27.3867L5.23803 24.4634H5.23133C5.18642 24.4435 5.14823 24.4108 5.12142 24.3693C5.09461 24.3279 5.08034 24.2795 5.08034 24.23C5.08034 24.1805 5.09461 24.1321 5.12142 24.0906C5.14823 24.0492 5.18642 24.0165 5.23133 23.9965H5.23803L12.2775 21.0596C13.4759 20.569 14.8169 20.569 16.0153 21.0596C16.0288 21.0596 16.0422 21.0732 16.0556 21.0799L23.1286 24.0303C23.1675 24.0482 23.2007 24.0767 23.2244 24.1125C23.2481 24.1484 23.2614 24.1902 23.2628 24.2333V24.2265ZM1.23844 14.7732C1.2117 14.682 1.21715 14.5843 1.25385 14.4967C1.29055 14.4091 1.35624 14.337 1.43973 14.2928L8.70736 10.4085C8.84823 10.3341 9.00467 10.2947 9.16369 10.2935C9.276 10.294 9.38734 10.3146 9.4925 10.3544C9.62034 10.4004 9.73717 10.4729 9.83543 10.5674C9.93369 10.6618 10.0112 10.776 10.0629 10.9025L13.425 19.0905C13.4572 19.1691 13.4737 19.2534 13.4736 19.3385C13.4735 19.4236 13.4568 19.5078 13.4244 19.5864C13.392 19.6649 13.3445 19.7363 13.2847 19.7963C13.225 19.8564 13.154 19.904 13.076 19.9364L11.9956 20.383C11.9803 20.3906 11.9647 20.3974 11.9486 20.4033L4.94269 23.3265C4.81844 23.3769 4.68527 23.4011 4.55139 23.3976C4.41751 23.3941 4.28576 23.363 4.16426 23.3062C4.04042 23.249 3.93021 23.1656 3.84107 23.0617C3.75193 22.9578 3.68593 22.8358 3.64753 22.704L1.23173 14.7732H1.23844ZM10.0629 37.5438C10.0102 37.6697 9.93232 37.7834 9.83419 37.8777C9.73607 37.972 9.61978 38.0449 9.49254 38.092C9.36501 38.1394 9.22886 38.1584 9.09337 38.1479C8.95788 38.1374 8.82623 38.0975 8.7074 38.031L1.43976 34.1469C1.35702 34.1021 1.29233 34.0296 1.25682 33.9419C1.22131 33.8543 1.2172 33.7568 1.24519 33.6664L3.66103 25.7356C3.70043 25.6042 3.7668 25.4827 3.85582 25.379C3.94484 25.2752 4.05453 25.1915 4.17774 25.1333C4.30822 25.0724 4.45003 25.0401 4.5938 25.0386C4.72249 25.0404 4.8498 25.0656 4.9696 25.113L11.9621 28.0364L13.0895 28.51C13.2461 28.5767 13.3704 28.7027 13.4357 28.8609C13.501 29.0191 13.502 29.1969 13.4385 29.3559L12.9821 30.4589C12.9752 30.469 12.9707 30.4806 12.9687 30.4928L10.0697 37.5506L10.0629 37.5438ZM22.6722 27.7386L22.2562 28.7671V28.7807L20.7127 32.5973V32.6108C20.4618 33.2141 20.092 33.7597 19.6256 34.2145L19.6251 34.2172L19.6237 34.2194L19.6215 34.2208L19.6189 34.2213C19.407 34.4286 19.1755 34.6144 18.9277 34.7762C18.8673 34.8168 18.8069 34.8574 18.7465 34.8912L18.7062 34.9115C18.6593 34.9386 18.6056 34.9656 18.5519 34.9995C18.5251 35.013 18.4983 35.0265 18.4647 35.0401C18.428 35.0609 18.3899 35.079 18.3506 35.0943C18.2835 35.1213 18.2097 35.1619 18.1426 35.189L11.0427 38.1529C10.997 38.1712 10.947 38.1755 10.8989 38.1652C10.8508 38.1549 10.8067 38.1305 10.7723 38.0951C10.7379 38.0597 10.7147 38.0148 10.7055 37.9661C10.6962 37.9174 10.7015 37.867 10.7206 37.8213L13.6263 30.7296C14.1285 29.5228 15.0803 28.563 16.277 28.0567L16.3172 28.0364L23.3903 25.0792L23.5312 25.0251C23.6277 24.9855 23.7218 24.9403 23.813 24.8898L22.6655 27.7386H22.6722ZM38.3483 10.6182L35.4091 17.7709C35.3822 17.8454 35.3487 17.913 35.3151 17.9875C35.3017 18.0145 35.2883 18.0551 35.2682 18.089C35.2547 18.1228 35.2346 18.1566 35.2212 18.1904L35.1407 18.3326C35.134 18.3529 35.1206 18.3664 35.1138 18.3867C35.0803 18.4409 35.04 18.5018 35.0065 18.5559C35.0028 18.5595 35.0005 18.5643 34.9998 18.5694C34.8378 18.8142 34.6559 19.0451 34.4561 19.2596C34.4525 19.2633 34.4501 19.268 34.4494 19.2731C34.0626 19.683 33.6028 20.0159 33.0939 20.2543C33.0134 20.2949 32.9261 20.3356 32.8389 20.3762L28.2018 22.3318L28.0274 22.4063L25.1351 23.6243C25.2115 23.4962 25.2787 23.3628 25.3364 23.225L25.3901 23.1033C25.3937 23.0959 25.3982 23.0891 25.4035 23.083L28.3293 15.9506C28.3293 15.9506 28.3495 15.8965 28.3629 15.8627C28.5995 15.2796 28.9485 14.7497 29.3897 14.3037C29.8309 13.8576 30.3555 13.5043 30.933 13.2642L38.0263 10.3003C38.0713 10.2817 38.1208 10.2771 38.1684 10.2868C38.2161 10.2965 38.2599 10.3201 38.2942 10.3548C38.3286 10.3895 38.3521 10.4336 38.3617 10.4817C38.3713 10.5297 38.3667 10.5796 38.3483 10.625L38.3483 10.6182Z" fill="white"/>
<path opacity="0.4" d="M1.1001 34.2863V34.3879L1.12694 34.3743C1.11599 34.348 1.10702 34.3208 1.1001 34.2931V34.2863ZM39.2166 9.35699L39.0555 9.45847C39.1159 9.45847 39.1763 9.45171 39.2434 9.44494C39.2367 9.41277 39.2277 9.38111 39.2166 9.35022V9.35699Z" fill="white"/>
<path opacity="0.4" d="M27.5665 15.9821L24.5936 23.216C24.5771 23.2518 24.5505 23.2818 24.517 23.3023C24.4836 23.3228 24.4449 23.3327 24.4058 23.331V4.9994C24.4552 4.99775 24.5039 5.01192 24.5449 5.03987C24.5858 5.06782 24.617 5.10812 24.6339 5.15501V5.16854L27.5463 12.2603C28.0292 13.4518 28.0365 14.7854 27.5665 15.9821Z" fill="white"/>
<path opacity="0.4" d="M38.2163 11.0222L35.277 18.1748C35.2498 18.2465 35.2184 18.3165 35.1831 18.3845C35.1697 18.4117 35.1495 18.4523 35.1361 18.4861C35.1227 18.5199 35.1026 18.5537 35.0892 18.5876L35.0086 18.7297C35.0019 18.75 34.9885 18.7635 34.9818 18.7838C34.9483 18.8379 34.908 18.8988 34.8744 18.953C34.8708 18.9567 34.8684 18.9614 34.8677 18.9665C34.7057 19.2113 34.5239 19.4422 34.3241 19.6567C34.3205 19.6604 34.3181 19.6651 34.3174 19.6703C33.9317 20.0785 33.4744 20.4111 32.9686 20.6515C32.8881 20.6921 32.8008 20.7327 32.7136 20.7665L28.0765 22.7222L27.9021 22.7966L25.0098 24.0147L38.1626 10.7311C38.2028 10.7649 38.231 10.8108 38.2431 10.862C38.2552 10.9132 38.2505 10.9671 38.2297 11.0154L38.2163 11.0222Z" fill="white"/>
<path opacity="0.4" d="M23.5001 23.7115L10.6357 10.7663C10.6692 10.7258 10.7147 10.6974 10.7655 10.6852C10.8163 10.673 10.8697 10.6777 10.9176 10.6987H10.9243L17.9437 13.6355C19.1422 14.1416 20.0962 15.1012 20.6011 16.3084C20.6025 16.3228 20.607 16.3367 20.6145 16.349L23.5403 23.4814C23.5558 23.5212 23.5597 23.5647 23.5513 23.6067C23.543 23.6487 23.5229 23.6874 23.4934 23.7182L23.5001 23.7115Z" fill="white"/>
<path opacity="0.4" d="M23.1243 24.6228H4.93848C4.93912 24.5735 4.95408 24.5254 4.9815 24.4845C5.00892 24.4437 5.04761 24.4118 5.0928 24.3928H5.09951L12.1389 21.4559C13.3374 20.9653 14.6784 20.9653 15.8768 21.4559C15.8902 21.4559 15.9037 21.4695 15.9171 21.4762L22.9901 24.4266C23.0299 24.4432 23.064 24.4713 23.0879 24.5075C23.1118 24.5436 23.1245 24.5861 23.1243 24.6296L23.1243 24.6228Z" fill="white"/>
<path opacity="0.4" d="M23.6878 25.2935L10.6423 38.4957C10.6062 38.4621 10.5815 38.4178 10.5719 38.3692C10.5623 38.3205 10.5681 38.2701 10.5887 38.225L13.5011 31.1333C14.0013 29.9252 14.9537 28.9648 16.1518 28.4604L16.192 28.4401L23.265 25.4829L23.406 25.4288C23.5025 25.3893 23.5966 25.3441 23.6878 25.2935Z" fill="white"/>
<path opacity="0.4" d="M9.35383 38.4966C9.22646 38.5433 9.0908 38.5627 8.95557 38.5534C8.82034 38.544 8.68855 38.5063 8.56869 38.4424L1.30105 34.5582C1.22698 34.5151 1.16651 34.4518 1.1266 34.3755L1.08635 34.3891V34.2876C1.07761 34.2152 1.08216 34.1417 1.09977 34.071L1.11989 34.0033L3.50889 26.1402C3.54827 26.0089 3.61464 25.8874 3.70367 25.7836C3.79269 25.6799 3.90238 25.5962 4.02561 25.538L6.67628 31.9935L6.6897 32.0206L9.34712 38.4898L9.35383 38.4966Z" fill="white"/>
<path opacity="0.4" d="M23.4934 4.09841L17.0915 6.77812L10.6492 9.47135C10.603 9.34174 10.5838 9.20386 10.5931 9.06642C10.6023 8.92898 10.6398 8.79496 10.703 8.67285L14.5548 1.33751C14.5999 1.25317 14.6739 1.18824 14.7629 1.15484C14.8116 1.13328 14.8641 1.12178 14.9172 1.12101C14.9558 1.11841 14.9944 1.12299 15.0313 1.13454L22.8962 3.57063C23.0259 3.61151 23.1458 3.67887 23.2486 3.76851C23.3513 3.85815 23.4347 3.96816 23.4934 4.09168V4.09841Z" fill="white"/>
<path opacity="0.4" d="M13.2865 29.2519L6.70335 32.0264L1.13352 34.3745L1.09326 34.388V34.2865L1.13352 34.0023L3.52251 26.1391C3.5619 26.0078 3.62828 25.8863 3.7173 25.7826C3.80633 25.6788 3.91602 25.5951 4.03923 25.5369C4.1697 25.476 4.31152 25.4437 4.45529 25.4422C4.58397 25.444 4.71128 25.4692 4.83108 25.5166L11.8236 28.4399L12.951 28.9136C13.104 28.9778 13.2265 29.0989 13.2932 29.2519H13.2865Z" fill="white"/>
<path opacity="0.4" d="M23.4931 4.09821C23.5526 4.22219 23.5852 4.35756 23.5887 4.49527C23.5922 4.63298 23.5664 4.76984 23.5132 4.89671L20.6142 11.9478L20.1444 13.0847C20.0868 13.2305 19.9765 13.349 19.8358 13.4163L17.0844 6.77791L14.7559 1.16137C14.8045 1.13981 14.857 1.12831 14.9102 1.12754C14.9487 1.12494 14.9874 1.12952 15.0242 1.14107L22.8891 3.5772C23.0188 3.61809 23.1388 3.68544 23.2415 3.77508C23.3443 3.86472 23.4276 3.97473 23.4864 4.09825L23.4931 4.09821Z" fill="white"/>
<path opacity="0.4" d="M10.9175 19.0214L4.03903 23.7176C3.91519 23.6604 3.80499 23.577 3.71585 23.4731C3.62671 23.3692 3.56071 23.2472 3.52231 23.1154L1.10648 15.1846C1.083 15.1028 1.083 15.016 1.10648 14.9342L1.14674 14.853C1.18264 14.7852 1.23905 14.7307 1.30777 14.6974L8.5754 10.8132C8.71597 10.738 8.8726 10.6985 9.03172 10.6982C9.14404 10.6986 9.25538 10.7193 9.36054 10.759L10.9175 19.0214Z" fill="white"/>
<path opacity="0.4" d="M38.0958 8.66693C38.1621 8.78795 38.2013 8.92219 38.2106 9.06017C38.2199 9.19815 38.199 9.33649 38.1494 9.46544L29.996 11.0421L25.312 4.09926C25.3697 3.975 25.4527 3.86439 25.5556 3.77461C25.6585 3.68484 25.779 3.61791 25.9092 3.5782L33.7741 1.14211C33.8636 1.1118 33.961 1.11494 34.0484 1.15096C34.1359 1.18697 34.2076 1.25346 34.2505 1.33831L38.1025 8.66689L38.0958 8.66693Z" fill="white"/>
<path opacity="0.4" d="M38.0958 8.66693C38.1621 8.78795 38.2013 8.92219 38.2106 9.06017C38.2199 9.19815 38.199 9.33649 38.1494 9.46544L29.996 11.0421L25.312 4.09926C25.3697 3.975 25.4527 3.86439 25.5556 3.77461C25.6585 3.68484 25.779 3.61791 25.9092 3.5782L33.7741 1.14211C33.8636 1.1118 33.961 1.11494 34.0484 1.15096C34.1359 1.18697 34.2076 1.25346 34.2505 1.33831L38.1025 8.66689L38.0958 8.66693Z" fill="#FAD9A1"/>
<path opacity="0.4" d="M13.2796 20.0026L10.9175 19.0214L1.10645 14.9342L1.1467 14.853C1.18261 14.7852 1.23901 14.7307 1.30773 14.6974L8.57537 10.8132C8.71623 10.7388 8.87267 10.6993 9.03169 10.6982C9.14401 10.6986 9.25534 10.7193 9.36051 10.759C9.48834 10.805 9.60517 10.8776 9.70343 10.972C9.80169 11.0664 9.87919 11.1806 9.93092 11.3072L13.293 19.4951C13.3258 19.576 13.3415 19.6629 13.3392 19.7503C13.3369 19.8377 13.3166 19.9236 13.2796 20.0026Z" fill="white"/>
<path opacity="0.4" d="M38.1494 9.46623C38.1038 9.59513 38.0318 9.71294 37.9382 9.81202C37.8446 9.9111 37.7313 9.98925 37.6058 10.0414L29.486 13.4317C29.4086 13.4651 29.3252 13.4824 29.241 13.4824C29.1568 13.4824 29.0735 13.4651 28.9961 13.4317L29.9893 11.0429L34.0962 1.19031C34.1563 1.22833 34.205 1.28212 34.2371 1.34592L38.089 8.67449C38.1554 8.79551 38.1946 8.92975 38.2038 9.06772C38.2131 9.20569 38.1922 9.34403 38.1427 9.47297L38.1494 9.46623Z" fill="#FFFACC" fill-opacity="0.79"/>
<path d="M39.062 9.11985L34.8477 1.10784C34.7072 0.835795 34.4762 0.622299 34.1952 0.504759C33.9142 0.387219 33.6012 0.373133 33.311 0.464968L24.9697 3.04317C24.4736 3.19882 23.9424 3.19882 23.4464 3.04317L15.1117 0.458202C14.9878 0.420357 14.8587 0.402098 14.7293 0.404076C14.492 0.402651 14.259 0.466884 14.0554 0.58978C13.8519 0.712676 13.6857 0.889525 13.575 1.10107L9.4882 8.86952C9.24563 9.33621 8.86909 9.71826 8.40778 9.96575L0.697254 14.0936C0.429156 14.2371 0.218929 14.4702 0.102616 14.753C-0.013698 15.0357 -0.0288533 15.3504 0.0597481 15.6432L2.62321 24.0545C2.77084 24.558 2.77084 25.0938 2.62321 25.5973L0.0597481 33.9951C-0.0306764 34.2877 -0.0163975 34.6032 0.100097 34.8863C0.216591 35.1695 0.427917 35.4025 0.697254 35.5447L8.64937 39.7943C8.91174 39.9358 9.20208 40.0164 9.49925 40.0305C9.79643 40.0445 10.093 39.9916 10.3673 39.8755L18.2591 36.5868C18.3108 36.5675 18.3603 36.5425 18.4067 36.5123L18.6549 36.3906C18.7039 36.3672 18.751 36.34 18.7959 36.3094L18.91 36.2417C18.9472 36.2216 18.9831 36.199 19.0173 36.174L19.0978 36.1266C20.0509 35.5017 20.791 34.5971 21.2184 33.5349L23.1779 28.6831C23.2316 28.5477 24.8019 24.5417 24.7415 24.4063C24.6878 24.271 24.4932 24.7921 24.3657 24.7379C24.2315 24.677 23.9295 24.5417 23.802 24.5958C23.6678 24.6567 22.225 28.1282 22.178 28.2635L20.1917 33.1831C19.9507 33.7431 19.6017 34.2492 19.1649 34.6718L19.118 34.7192C18.9245 34.9017 18.7157 35.067 18.4939 35.2132C18.4335 35.2537 18.3798 35.2876 18.3194 35.3282L18.2187 35.3823C18.2187 35.3823 18.1785 35.4026 18.1583 35.4161L18.1181 35.4364L18.0644 35.4635L17.8967 35.5447C17.856 35.5668 17.8133 35.5849 17.7692 35.5988L10.5216 38.6304L13.4877 31.4101C13.9701 30.2494 14.8826 29.3244 16.0311 28.8319L16.0713 28.8184L23.292 25.8003C24.1444 25.4416 24.8219 24.7583 25.1777 23.8988L28.2109 16.5229C28.4384 15.9635 28.7738 15.4553 29.1978 15.0278C29.6217 14.6003 30.1257 14.2621 30.6804 14.0327L37.9078 11.0146L34.8947 18.3567C34.8746 18.404 34.8477 18.4583 34.8276 18.4988L34.7739 18.6139C34.7739 18.6139 34.7605 18.6409 34.7403 18.6883L34.6665 18.8168L34.4988 19.074V19.1011L34.4854 19.1214C34.3462 19.3311 34.189 19.5281 34.0156 19.7101L33.9217 19.8048C33.5639 20.1585 33.1514 20.4511 32.7003 20.671C32.6216 20.7111 32.541 20.7473 32.4588 20.7793L24.7616 24.0207C24.6313 24.0824 24.5244 24.1849 24.4567 24.313C24.3889 24.441 24.3641 24.5877 24.3859 24.7312C24.4462 24.9815 24.1375 24.9747 24.3859 24.9747C24.4597 24.9747 24.5133 25.0018 24.5737 24.9747L32.8748 21.7943C33.9197 21.3616 34.8108 20.621 35.4316 19.6695L35.4786 19.6154V19.5951L35.5121 19.5342C35.5121 19.5342 35.5457 19.4801 35.5591 19.453C35.5766 19.4271 35.5923 19.3999 35.606 19.3717L35.7134 19.1687C35.7134 19.1687 35.7402 19.1146 35.7536 19.0808L35.8476 18.8845C35.875 18.8317 35.8997 18.7775 35.9215 18.7221L39.1493 10.8522C39.2626 10.574 39.3142 10.2741 39.3003 9.97366C39.2864 9.67319 39.2073 9.37945 39.0687 9.11309L39.062 9.11985ZM10.6759 8.95071L14.5279 1.62212C14.5522 1.58404 14.5862 1.55326 14.6263 1.53302C14.6665 1.51278 14.7113 1.50383 14.7561 1.5071H14.7829L22.6478 3.94994C22.7527 3.98035 22.85 4.03286 22.9333 4.10402C23.0166 4.17518 23.084 4.26336 23.1309 4.36272C23.1772 4.46413 23.2029 4.57389 23.2064 4.68548C23.2098 4.79707 23.191 4.90822 23.1511 5.01235L19.7824 13.2071C19.7325 13.3182 19.6442 13.4072 19.534 13.4575C19.4782 13.4785 19.4192 13.4899 19.3596 13.4913C19.2999 13.4905 19.2408 13.4791 19.1851 13.4575L11.0719 10.0672C10.9708 10.0246 10.8797 9.96101 10.8045 9.88057C10.7294 9.80013 10.6719 9.70464 10.6357 9.60031C10.5987 9.49602 10.5833 9.38524 10.5902 9.27471C10.5971 9.16419 10.6263 9.05625 10.6759 8.95747V8.95071ZM1.09989 15.3116C1.08614 15.2628 1.08928 15.2107 1.10879 15.164C1.12831 15.1173 1.16303 15.0786 1.20725 15.0545L8.47488 11.1635C8.57183 11.1104 8.67909 11.0793 8.78919 11.0722C8.89929 11.0652 9.00958 11.0825 9.11239 11.1229C9.21585 11.1593 9.31055 11.2173 9.39032 11.2931C9.4701 11.3689 9.53317 11.4608 9.57543 11.5627L12.9375 19.7439C12.9829 19.8563 12.9831 19.9821 12.938 20.0945C12.8928 20.207 12.806 20.2973 12.6958 20.3462L4.5693 23.7364C4.47363 23.7767 4.37098 23.7974 4.26732 23.7973C4.15167 23.7954 4.03758 23.77 3.93179 23.7229C3.83408 23.675 3.74691 23.6077 3.67544 23.5252C3.60397 23.4427 3.54966 23.3465 3.51573 23.2424L1.09989 15.3116ZM12.9308 29.874L9.56202 38.062C9.52174 38.1652 9.45934 38.2581 9.3793 38.3341C9.29925 38.4102 9.20353 38.4674 9.09898 38.5018C9.01325 38.5345 8.92219 38.5505 8.83056 38.5492C8.70346 38.5516 8.57814 38.5188 8.46819 38.4545L1.20055 34.577C1.15531 34.5524 1.12029 34.5122 1.10183 34.4638C1.08337 34.4154 1.08269 34.362 1.09991 34.3131L3.51574 26.3823C3.54736 26.278 3.60006 26.1815 3.67052 26.0988C3.74097 26.0161 3.82765 25.949 3.92509 25.9018C4.02444 25.855 4.13218 25.8291 4.24178 25.8256C4.35137 25.8221 4.46053 25.8411 4.5626 25.8815L12.6825 29.2785C12.7925 29.3257 12.88 29.4143 12.9263 29.5255C12.9727 29.6367 12.9743 29.7617 12.9308 29.874ZM15.662 27.783L15.6284 27.7966C14.4572 28.2838 13.1424 28.2838 11.9711 27.7966L5.09273 24.9138V24.6973L12.0114 21.8078C13.168 21.3409 14.4584 21.3409 15.615 21.8078L22.5807 24.7176L22.7417 24.8191L15.662 27.7763V27.783ZM16.0915 20.8199C16.0721 20.811 16.0518 20.8042 16.0311 20.7996C14.8724 20.3014 13.9525 19.3666 13.4676 18.1943L10.5149 11.0011L17.6752 13.9921C18.8225 14.4782 19.7371 15.3956 20.2252 16.55C20.2386 16.577 20.2386 16.5973 20.2453 16.6041L23.198 23.7905L16.0848 20.8199H16.0915ZM27.1976 16.0966L24.2113 23.371L21.2385 16.1304C20.7686 14.9571 20.7758 13.6443 21.2586 12.4763L24.2113 5.28306L27.1842 12.5169C27.6482 13.6634 27.653 14.9466 27.1976 16.0966ZM37.7803 9.58001C37.7462 9.68548 37.6895 9.78204 37.614 9.86277C37.5386 9.94349 37.4464 10.0064 37.3441 10.0469L29.2242 13.4372C29.168 13.4561 29.109 13.4652 29.0497 13.4643C28.9922 13.4635 28.9354 13.452 28.882 13.4304C28.8261 13.4076 28.7753 13.3736 28.7327 13.3306C28.69 13.2876 28.6563 13.2364 28.6337 13.18L25.2716 4.99204C25.2289 4.89232 25.208 4.7845 25.2104 4.67591C25.2127 4.56732 25.2381 4.46051 25.285 4.36272C25.3318 4.26249 25.399 4.17333 25.4823 4.10104C25.5655 4.02875 25.6629 3.97496 25.7682 3.94318L33.6331 1.50709C33.655 1.50054 33.6775 1.49601 33.7002 1.49355C33.739 1.49361 33.777 1.50436 33.8101 1.52463C33.8432 1.54491 33.8702 1.57394 33.8881 1.60857L37.74 8.94393C37.7896 9.04151 37.8187 9.14833 37.8256 9.25775C37.8326 9.36716 37.8171 9.47686 37.7803 9.58001Z" fill="white"/>
<path opacity="0.38" d="M38.1022 8.70654C38.168 8.82764 38.2074 8.96151 38.2179 9.0992C38.2283 9.23689 38.2094 9.37523 38.1626 9.505L30.0092 11.0818L25.3252 4.13886C25.382 4.01399 25.4647 3.90286 25.5677 3.81297C25.6708 3.72309 25.7917 3.65654 25.9224 3.61782L33.7873 1.18172C33.8426 1.16275 33.9015 1.15655 33.9596 1.16357C34.0177 1.1706 34.0735 1.19067 34.1228 1.22231C34.1814 1.26208 34.2298 1.31545 34.2637 1.37793L38.1157 8.70654H38.1022Z" fill="#FFFA87" fill-opacity="0.19"/>
<path d="M41.9207 7.39453L40.2632 21.5442H43.283L44.9405 7.40807H41.9207V7.39453Z" fill="black"/>
<path d="M57.268 13.3084C57.7277 12.7356 58.0101 12.039 58.08 11.3054C58.1622 10.6995 58.1001 10.0825 57.8989 9.50548C57.714 8.97292 57.3808 8.50538 56.9392 8.15883C56.5573 7.86896 56.114 7.6721 55.6441 7.58364C54.8958 7.448 54.1359 7.38906 53.3759 7.40773H49.5105L47.853 21.5438L51.7384 21.5573C52.7259 21.5912 53.7139 21.5141 54.6844 21.3273C55.304 21.17 55.8786 20.8687 56.3621 20.4475C56.8079 20.0653 57.1749 19.5985 57.4425 19.0738C57.7107 18.5497 57.8834 17.9813 57.9525 17.3957C58.0961 16.5448 57.9241 15.6705 57.4694 14.9393C57.2094 14.5495 56.8532 14.2347 56.4359 14.0258C56.7434 13.8355 57.0177 13.5954 57.2479 13.3152L57.268 13.3084ZM54.8925 17.2536C54.8607 17.5454 54.7619 17.8258 54.6039 18.0724C54.4609 18.3069 54.2626 18.5021 54.0268 18.6408C53.7837 18.7816 53.5138 18.8692 53.2349 18.8979C52.6669 18.9622 52.0953 18.9894 51.5237 18.9791H51.1412L51.5573 15.4603H52.6175C52.9546 15.454 53.2916 15.4789 53.6241 15.5348C53.8311 15.5694 54.0321 15.6331 54.2214 15.7243C54.4691 15.8526 54.6657 16.0628 54.7784 16.3197C54.901 16.6145 54.9405 16.9376 54.8925 17.2536ZM55.0133 11.5829C55.0073 11.8054 54.948 12.0232 54.8405 12.2176C54.733 12.412 54.5805 12.5773 54.3959 12.6994C53.7408 13.0005 53.0192 13.1241 52.3022 13.0581H51.8392L52.1948 9.96564H52.6645C53.3669 9.87962 54.0786 10.0118 54.7045 10.3445C54.8578 10.5064 54.9669 10.7056 55.021 10.9226C55.0751 11.1397 55.0724 11.3672 55.0133 11.5829Z" fill="black"/>
<path d="M75.6214 7.63639L72.1721 14.2476C72.0111 14.559 71.8701 14.8364 71.7493 15.0868C71.6755 14.789 71.595 14.4845 71.5145 14.1868L69.2328 6.48602L65.24 14.0379C65.24 14.0379 65.193 14.1326 65.146 14.2138C64.9984 14.5048 64.8574 14.8025 64.7165 15.1071C64.6427 14.8297 64.5622 14.5184 64.4683 14.1732L62.6161 7.60256H59.6299L63.6294 21.9823L68.0048 14.0108C68.1323 13.7672 68.2665 13.5101 68.394 13.2461C68.4544 13.483 68.5282 13.7266 68.6087 13.9838L71.085 21.9958L78.6277 7.64993H75.6214V7.63639Z" fill="black"/>
<path d="M89.3185 17.5501C91.7473 15.3102 93.0423 13.4832 93.21 12.0486C93.2972 11.56 93.2659 11.0574 93.1187 10.5837C92.9715 10.11 92.7128 9.67925 92.3646 9.32825C91.5432 8.60117 90.4698 8.2314 89.3789 8.29971C88.179 8.25112 87.0019 8.64034 86.0635 9.39599C85.625 9.77308 85.2647 10.2338 85.0033 10.7517C84.7418 11.2696 84.5844 11.8345 84.5401 12.414L84.5267 12.5426H85.7616C85.8259 11.6645 86.2079 10.8408 86.8351 10.2283C87.4603 9.65875 88.2812 9.35771 89.1231 9.38923C89.5079 9.36567 89.8935 9.42064 90.2568 9.55086C90.6201 9.68108 90.9536 9.88386 91.2374 10.1471C91.4869 10.4029 91.6724 10.7149 91.7785 11.0573C91.8847 11.3997 91.9085 11.7627 91.848 12.1163C91.7138 13.2531 90.2687 15.1162 87.5128 17.7057C87.07 18.1185 86.7278 18.4365 86.4929 18.6599L83.1577 21.82L92.0157 21.8538L92.1365 20.7982L85.822 20.7779L89.2237 17.6381L89.3185 17.5434V17.5501Z" fill="black"/>
<path d="M104.202 11.7912C104.279 11.3377 104.246 10.872 104.104 10.4345C103.963 9.99693 103.718 9.60086 103.39 9.2807C102.632 8.60111 101.638 8.25091 100.625 8.3063C99.6114 8.27224 98.6142 8.5741 97.7864 9.16568C97.0137 9.73781 96.4802 10.5799 96.2902 11.5274H97.6388C97.7707 10.8948 98.126 10.3321 98.6385 9.94391C99.1788 9.55328 99.8339 9.35779 100.498 9.38903C100.842 9.36666 101.187 9.41711 101.51 9.53714C101.834 9.65717 102.129 9.84413 102.377 10.086C102.599 10.3283 102.763 10.6195 102.855 10.9366C102.947 11.2536 102.965 11.588 102.907 11.9131C102.877 12.2589 102.778 12.595 102.615 12.901C102.452 13.2069 102.23 13.4763 101.961 13.6928C101.342 14.1425 100.589 14.3646 99.827 14.3221C99.7507 14.3236 99.6744 14.319 99.5988 14.3085C99.5116 14.3085 99.3841 14.295 99.2156 14.2815L99.0747 15.4319H99.5988C99.9974 15.403 100.398 15.4565 100.775 15.5892C101.152 15.7218 101.499 15.9308 101.793 16.2033C102.045 16.486 102.228 16.8239 102.328 17.1903C102.428 17.5567 102.443 17.9416 102.37 18.3146C102.34 18.7138 102.231 19.1028 102.049 19.4586C101.866 19.8143 101.615 20.1295 101.31 20.3852C100.644 20.9106 99.8117 21.175 98.9673 21.1296C98.2116 21.1884 97.4636 20.9426 96.8874 20.4461C96.649 20.184 96.4703 19.8727 96.3637 19.5337C96.2571 19.1948 96.2251 18.8365 96.2701 18.4838L94.9148 18.4702C94.8624 18.9743 94.9199 19.4838 95.0834 19.963C95.2468 20.4422 95.5121 20.8797 95.8608 21.2446C96.6892 21.9499 97.7587 22.2997 98.8398 22.2191C100.035 22.2648 101.209 21.8918 102.162 21.1635C102.591 20.8149 102.947 20.3833 103.209 19.8941C103.47 19.4048 103.632 18.8678 103.685 18.3146C103.797 17.5799 103.64 16.8293 103.242 16.2033C102.809 15.5806 102.18 15.123 101.457 14.9041C102.184 14.7135 102.84 14.3165 103.349 13.7604C103.833 13.2168 104.132 12.5316 104.202 11.8048V11.7912Z" fill="black"/>
<path d="M31.499 33.8189C31.446 34.1011 31.4506 34.3912 31.5124 34.6715C31.567 34.9272 31.677 35.1675 31.8345 35.3753C31.9933 35.5762 32.1952 35.7382 32.4251 35.849C32.6812 35.9696 32.9612 36.0297 33.2438 36.0249C33.7039 36.0424 34.161 35.9423 34.5724 35.7339C34.9476 35.546 35.3009 35.3168 35.626 35.0504L35.3375 37.0128C35.0038 37.2437 34.6432 37.4323 34.2638 37.5745C33.8421 37.7161 33.3996 37.7848 32.9552 37.7776C32.421 37.7851 31.891 37.6815 31.3983 37.473C30.9577 37.2848 30.567 36.9951 30.2575 36.6271C29.9611 36.2549 29.7461 35.8237 29.6267 35.3617C29.4969 34.8558 29.4718 34.3283 29.5529 33.8121C29.6355 33.2578 29.8126 32.7221 30.0763 32.2287C30.3447 31.7511 30.6945 31.325 31.1097 30.97C31.5289 30.6152 32.0057 30.3359 32.519 30.1445C33.0547 29.939 33.6236 29.8357 34.1967 29.8399C34.6128 29.8218 35.0282 29.8885 35.418 30.0361C35.7719 30.176 36.1024 30.3701 36.3978 30.6114L36.0958 32.5805C35.8758 32.2862 35.5969 32.0418 35.2771 31.8632C34.9201 31.6649 34.5168 31.5668 34.1094 31.579C33.8024 31.5773 33.4976 31.6324 33.2102 31.7414C32.9238 31.8504 32.6582 32.0083 32.4251 32.2084C31.944 32.613 31.6206 33.1764 31.5124 33.7986L31.499 33.8189ZM38.7331 33.8189C38.6928 34.1017 38.6928 34.3888 38.7331 34.6715C38.7701 34.9274 38.8567 35.1735 38.9881 35.3956C39.1239 35.6058 39.3081 35.7799 39.5249 35.9031C39.7789 36.0306 40.06 36.0933 40.3436 36.0858C40.6513 36.0954 40.9576 36.04 41.2429 35.9234C41.5207 35.8024 41.7751 35.6329 41.9944 35.4226C42.2146 35.2121 42.4003 34.9677 42.5447 34.6986C42.6909 34.4209 42.7928 34.1218 42.8467 33.8121C42.887 33.5316 42.887 33.2467 42.8467 32.9662C42.8083 32.7044 42.7169 32.4534 42.5783 32.2287C42.4498 32.0122 42.2639 31.8364 42.0414 31.7211C41.7904 31.5843 41.508 31.5166 41.2228 31.5249C40.9141 31.5197 40.6078 31.5796 40.3235 31.7009C40.043 31.8168 39.7877 31.9869 39.5719 32.2016C39.3558 32.4158 39.1705 32.6595 39.0216 32.9256C38.8768 33.2027 38.7792 33.5024 38.7331 33.8121V33.8189ZM36.8407 33.8189C36.9222 33.2729 37.0995 32.7459 37.3641 32.2625C37.6296 31.7848 37.9746 31.3567 38.3841 30.997C38.7927 30.6396 39.2607 30.3578 39.7665 30.1648C40.284 29.9612 40.835 29.8578 41.3905 29.8602C41.9127 29.8492 42.4307 29.9556 42.9071 30.1715C43.3412 30.3609 43.7234 30.6534 44.0211 31.0241C44.3251 31.3913 44.541 31.8244 44.6518 32.2896C44.775 32.7896 44.8001 33.3091 44.7256 33.8189C44.641 34.3727 44.464 34.9081 44.2022 35.4023C43.9374 35.8845 43.5924 36.3171 43.1822 36.6813C42.7734 37.0468 42.3059 37.3397 41.7999 37.5474C41.2757 37.7523 40.7179 37.8556 40.1557 37.852C39.6256 37.8626 39.1001 37.7515 38.619 37.5271C38.1888 37.3219 37.8103 37.0211 37.5117 36.6474C37.2173 36.2691 37.0089 35.8302 36.9011 35.3617C36.7871 34.858 36.7644 34.3376 36.834 33.8256L36.8407 33.8189ZM51.4967 30.0294H53.228L51.8725 37.967L47.6314 33.3317L46.8999 37.6083H45.1685L46.5107 29.6708L50.7652 34.3061L51.4967 30.0294ZM55.6238 31.5993L55.9056 30.0294H59.1938L58.912 31.5993H55.6238ZM55.1205 34.5632L55.3755 33.088H58.563L58.308 34.5632H55.1205ZM54.7245 30.0294H56.4559L55.154 37.6083H53.4495L54.7245 30.0294ZM60.3749 37.6083L60.6299 36.1061H64.3476L64.0926 37.6083H60.3749ZM61.4084 31.5316L61.6768 30.0294H65.3811L65.1126 31.5316H61.4084ZM60.9252 34.3602L61.1802 32.885H64.6831L64.4282 34.3602H60.9252ZM60.4957 30.0294H62.227L60.9252 37.6083H59.2206L60.4957 30.0294ZM67.9244 34.1776H69.7295L71.414 37.6083H69.3873L67.9244 34.1776ZM66.7768 30.0294H68.5686L67.2667 37.6083H65.4951L66.7701 30.0294H66.7768ZM67.6224 31.579L67.8774 30.0294H69.394C69.8886 30.0127 70.3796 30.1196 70.8234 30.3407C71.1973 30.5232 71.5032 30.8221 71.6958 31.1933C71.8945 31.5998 71.9625 32.0587 71.8903 32.5061C71.8258 32.9852 71.6359 33.4383 71.3401 33.8189C71.0483 34.199 70.6648 34.4972 70.2261 34.6851C69.7319 34.887 69.2024 34.9859 68.6693 34.976H67.0386L67.2936 33.5549H68.676C68.8889 33.5587 69.1006 33.522 69.3 33.4467C69.4859 33.3718 69.6515 33.2535 69.7832 33.1015C69.912 32.9464 69.9977 32.7596 70.0315 32.5602C70.0706 32.3853 70.0518 32.2022 69.9779 32.0391C69.908 31.8908 69.7894 31.7713 69.6423 31.7009C69.4735 31.6094 69.2835 31.565 69.092 31.5722H67.6224V31.579ZM73.4002 37.6083L73.6553 36.1061H77.3729L77.118 37.6083H73.4002ZM74.4337 31.5316L74.7021 30.0294H78.4064L78.138 31.5316H74.4337ZM73.9506 34.3602L74.2055 32.885H77.7085L77.4535 34.3602H73.9506ZM73.5211 30.0294H75.2524L73.9506 37.6083H72.246L73.5211 30.0294ZM84.8352 30.0294H86.5666L85.2113 37.967L80.9698 33.3317L80.2384 37.6083H78.5071L79.8492 29.6708L84.1038 34.3061L84.8352 30.0294ZM88.9552 33.8189C88.9056 34.1014 88.9101 34.3908 88.9686 34.6715C89.0231 34.9274 89.1334 35.1678 89.2915 35.3753C89.4502 35.5762 89.6521 35.7382 89.8819 35.849C90.138 35.9696 90.4179 36.0297 90.7005 36.0249C91.1606 36.0424 91.6176 35.9423 92.029 35.7339C92.404 35.546 92.7573 35.3167 93.0824 35.0504L92.7939 37.0128C92.4602 37.2437 92.0997 37.4323 91.7203 37.5745C91.2987 37.7161 90.8563 37.7848 90.412 37.7776C89.8776 37.7851 89.3474 37.6814 88.8545 37.473C88.414 37.2848 88.0233 36.9951 87.7139 36.6271C87.4175 36.2549 87.2026 35.8237 87.0832 35.3617C86.9534 34.8558 86.9283 34.3283 87.0094 33.8121C87.092 33.2578 87.269 32.7221 87.5328 32.2287C88.0752 31.2629 88.9415 30.5239 89.9759 30.1445C90.5114 29.939 91.0802 29.8357 91.6532 29.8399C92.0692 29.8218 92.4846 29.8885 92.8744 30.0361C93.2283 30.176 93.5587 30.3701 93.854 30.6114L93.552 32.5805C93.3321 32.2862 93.0532 32.0418 92.7335 31.8632C92.3765 31.6649 91.9734 31.5668 91.566 31.579C91.259 31.5773 90.9543 31.6324 90.6669 31.7414C90.0905 31.9638 89.6057 32.3764 89.2915 32.9121C89.1342 33.1867 89.025 33.4866 88.9686 33.7986L88.9552 33.8189ZM95.2437 37.6083L95.4986 36.1061H99.2157L98.9608 37.6083H95.2437ZM96.2769 31.5316L96.5453 30.0294H100.25L99.9814 31.5316H96.2769ZM95.7939 34.3602L96.0488 32.885H99.552L99.2962 34.3602H95.7939ZM95.3644 30.0294H97.0955L95.7939 37.6083H94.0888L95.3644 30.0294Z" fill="black"/>
<path d="M84.124 9.77519H82.4194L83.9764 7.02777H85.1577L84.124 9.77519Z" fill="black"/>
</g>
<defs>
<linearGradient id="paint0_linear_3760_1104" x1="29.139" y1="-2.52599" x2="5.61636" y2="37.877" gradientUnits="userSpaceOnUse">
<stop offset="0.1" stop-color="#FFF42F"/>
<stop offset="0.31" stop-color="#FFA232"/>
<stop offset="0.47" stop-color="#F450B2"/>
<stop offset="0.71" stop-color="#3FCBFF"/>
<stop offset="0.96" stop-color="#D0D81D"/>
</linearGradient>
</defs>
</svg>
