<svg width="131" height="48" viewBox="0 0 131 48" fill="none" xmlns="http://www.w3.org/2000/svg">
<g clip-path="url(#clip0_1298_5614)" filter="url(#filter0_b_1298_5614)">
<mask id="mask0_1298_5614" style="mask-type:luminance" maskUnits="userSpaceOnUse" x="-1" y="0" width="47" height="47">
<path d="M45.4077 0H-1V46.3997H45.4077V0Z" fill="white"/>
</mask>
<g mask="url(#mask0_1298_5614)">
<path opacity="0.4" d="M45.3451 10.6978C45.2651 10.6978 45.1931 10.7058 45.1211 10.7138L45.3131 10.5938C45.3131 10.5938 45.3371 10.6658 45.3451 10.7058V10.6978Z" fill="white"/>
<path d="M45.2407 12.0432L45.2247 12.0752L45.1927 12.1632L41.392 21.3407C41.352 21.4367 41.304 21.5327 41.264 21.6208C41.248 21.6688 41.216 21.7088 41.192 21.7648C41.168 21.8128 41.144 21.8528 41.128 21.8928C41.096 21.9568 41.056 22.0208 41.024 22.0928C41.008 22.1168 41 22.1408 40.992 22.1568C40.944 22.2369 40.8959 22.3169 40.8399 22.3969V22.4049C40.1278 23.5011 39.1116 24.3492 37.8794 24.8613H37.8554L32.3825 27.1577L32.1105 27.2697L27.8698 29.046L26.2135 33.1107L25.7174 34.3349L23.8771 38.8636C23.365 40.0958 22.5169 41.112 21.4287 41.8241C21.4287 41.8241 21.4207 41.8241 21.4127 41.8241C21.3327 41.8801 21.2527 41.9281 21.1727 41.9761L21.1086 42.0161C21.0446 42.0482 20.9806 42.0882 20.9166 42.1202C20.8686 42.1442 20.8286 42.1682 20.7806 42.1842C20.7326 42.2082 20.6926 42.2322 20.6446 42.2562C20.5566 42.3042 20.4525 42.3442 20.3645 42.3842L12.6272 45.5847L11.123 46.2088L11.059 46.2329C10.4589 46.4809 9.77876 46.4489 9.20266 46.1448L8.40253 45.7208L8.2665 45.6488L-0.27092 41.12C-0.831014 40.824 -1.11106 40.1678 -0.919028 39.5517L1.60939 31.3104L1.96945 30.1502L2.13748 29.6061C2.32951 28.974 2.32951 28.2939 2.13748 27.6538L1.96945 27.0937L1.60139 25.9015L-0.935031 17.7241C-1.11906 17.116 -0.847016 16.4519 -0.286923 16.1558L7.53838 12.0111L8.37852 11.5631L8.90661 11.283C9.49871 10.971 9.97879 10.4829 10.2908 9.8988L10.5549 9.40271L10.8029 8.93063L15.1557 0.705265C15.4517 0.145171 16.1078 -0.126874 16.7239 0.0571566L26.1015 2.93764H26.1255L26.6696 3.11367C27.3017 3.3057 27.9818 3.3057 28.6219 3.11367L29.19 2.94564L30.1662 2.64159L38.5596 0.0651579C39.1677 -0.126874 39.8318 0.153173 40.1278 0.713266L43.9525 7.92247L44.7286 9.39471L45.1447 10.1868C45.4487 10.7629 45.4807 11.4431 45.2327 12.0432H45.2407Z" fill="url(#paint0_linear_1298_5614)"/>
<path d="M45.1521 10.1868L44.736 9.39471L43.9599 7.92247L40.1272 0.713266C39.8312 0.153173 39.1671 -0.126874 38.559 0.0651579L30.1656 2.64159L29.1894 2.94564L28.6213 3.11367C27.9812 3.3057 27.3011 3.3057 26.669 3.11367L26.1249 2.94564H26.1009L16.7233 0.0571566C16.1152 -0.126874 15.4511 0.145171 15.1551 0.705265L10.8024 8.92263L10.5543 9.39471L10.2903 9.89079C9.97823 10.4829 9.49814 10.971 8.90605 11.275L8.37796 11.5551L7.53782 12.0031L-0.287486 16.1558C-0.847579 16.4519 -1.11962 17.108 -0.935594 17.7241L1.57682 25.9175L1.94489 27.1097L2.11291 27.6698C2.30495 28.3099 2.30495 28.99 2.11291 29.6221L1.94489 30.1662L1.58483 31.3264L-0.943595 39.5677C-1.13563 40.1758 -0.85558 40.84 -0.295487 41.136L8.24194 45.6648L8.37796 45.7368L9.17809 46.1608C9.75419 46.4649 10.4343 46.4969 11.0344 46.2489L11.0984 46.2249L12.6027 45.6007L20.34 42.4002C20.436 42.3602 20.532 42.3202 20.62 42.2722C20.668 42.2482 20.708 42.2242 20.756 42.2002C20.804 42.1762 20.844 42.1522 20.892 42.1362C20.9561 42.1042 21.0201 42.0642 21.0841 42.0322L21.1481 41.9921C21.2281 41.9441 21.3081 41.8961 21.3881 41.8401C21.3881 41.8401 21.3961 41.8401 21.4041 41.8401C22.4923 41.128 23.3485 40.1118 23.8525 38.8796L25.6928 34.3509L26.1889 33.1267L27.8452 29.062L32.0859 27.2857L32.358 27.1737L37.8309 24.8853H37.8549C39.0871 24.3652 40.1032 23.5171 40.8154 22.4209C40.8154 22.4209 40.8154 22.4209 40.8154 22.4129C40.8634 22.3329 40.9114 22.2529 40.9674 22.1728C40.9834 22.1568 40.9914 22.1328 40.9994 22.1088C41.0314 22.0368 41.0714 21.9808 41.1034 21.9088C41.1274 21.8688 41.1514 21.8208 41.1674 21.7808C41.1914 21.7328 41.2154 21.6848 41.2394 21.6368C41.2874 21.5407 41.3274 21.4447 41.3675 21.3567L45.1681 12.1792L45.2001 12.0912L45.2161 12.0592C45.4641 11.4591 45.4321 10.7789 45.1281 10.2028L45.1521 10.1868ZM28.7253 4.36988C28.8694 4.06582 29.1254 3.84979 29.4375 3.75377L38.815 0.873293C39.0391 0.801281 39.2791 0.897297 39.3831 1.10533L43.9759 9.77078C44.1359 10.0588 44.1599 10.4029 44.0399 10.7149C43.9279 11.027 43.6958 11.267 43.3918 11.395L33.7102 15.4037C33.3261 15.5637 32.878 15.3797 32.718 14.9876L32.1899 13.7074C32.1899 13.7074 32.1739 13.6674 32.1659 13.6514L28.7093 5.30603C28.5893 5.00198 28.5973 4.67393 28.7334 4.37788L28.7253 4.36988ZM27.9172 5.62608C27.9172 5.62608 27.9172 5.63409 27.9172 5.64209L31.3898 14.0275C31.9659 15.4437 31.9739 17.004 31.4138 18.4282L27.8692 26.9816C27.8052 27.1097 27.6932 27.1257 27.6452 27.1257C27.5972 27.1257 27.4691 27.1097 27.4051 26.9656L23.9165 18.5322C23.9165 18.5322 23.9005 18.5002 23.8925 18.4842C23.3004 17.028 23.3084 15.4277 23.9085 13.9715L24.4046 12.7713L27.3651 5.62608C27.4691 5.38604 27.8132 5.38604 27.9092 5.62608H27.9172ZM11.3144 9.77878L15.9072 1.10533C15.9952 0.945305 16.1633 0.849289 16.3313 0.849289C16.3793 0.849289 16.4273 0.849289 16.4673 0.865291L25.8449 3.74577C26.1569 3.84179 26.413 4.06582 26.557 4.36187C26.701 4.66592 26.709 4.99398 26.581 5.30603L23.1244 13.6434L22.5643 14.9876C22.4043 15.3717 21.9562 15.5557 21.5642 15.3957L20.2599 14.8516C20.2599 14.8516 20.2359 14.8436 20.2279 14.8356L11.8905 11.379C11.5865 11.251 11.3545 11.011 11.2424 10.6989C11.1304 10.3869 11.1544 10.0508 11.3064 9.75477L11.3144 9.77878ZM11.5705 12.1792H11.5785L19.9479 15.6518C21.3881 16.2599 22.5083 17.38 23.1164 18.8123C23.1164 18.8283 23.1244 18.8443 23.1324 18.8603L26.621 27.2937C26.677 27.4377 26.597 27.5337 26.565 27.5737C26.533 27.6137 26.429 27.6858 26.2849 27.6298L17.8515 24.1332C17.8515 24.1332 17.8195 24.1172 17.7955 24.1172C16.3553 23.5011 15.2271 22.3649 14.627 20.9166L11.1704 12.5712C11.0744 12.3312 11.3144 12.0832 11.5545 12.1872L11.5705 12.1792ZM26.1329 28.6459C26.1329 28.6939 26.1169 28.822 25.9729 28.878L17.5395 32.3745C17.5395 32.3745 17.5075 32.3905 17.4915 32.3985C16.0352 32.9826 14.435 32.9826 12.9787 32.3825L4.64134 28.926H4.63333C4.39329 28.822 4.39329 28.4779 4.63333 28.3739H4.64134L13.0347 24.9013C14.475 24.3172 16.0512 24.3252 17.4915 24.9013C17.5075 24.9013 17.5235 24.9173 17.5395 24.9253L25.9729 28.4139C26.1089 28.4779 26.1329 28.6059 26.1329 28.6539V28.6459ZM-0.127459 17.4681C-0.19147 17.244 -0.0954537 17.012 0.112581 16.9L8.77802 12.3072C8.94605 12.2192 9.13809 12.1712 9.32212 12.1712C9.45014 12.1712 9.58616 12.1952 9.71418 12.2432C10.0262 12.3552 10.2663 12.5872 10.3943 12.8913L14.403 22.5729C14.563 22.965 14.379 23.413 13.9869 23.5731L12.6987 24.1012C12.6987 24.1012 12.6667 24.1172 12.6427 24.1252L4.28928 27.5817C3.98523 27.7018 3.65717 27.6938 3.36112 27.5577C3.05707 27.4137 2.84104 27.1657 2.74502 26.8456L-0.13546 17.4681H-0.127459ZM10.3943 44.3925C10.2663 44.6966 10.0262 44.9206 9.71418 45.0407C9.40213 45.1527 9.06607 45.1287 8.77802 44.9686L0.112581 40.3759C-0.0874524 40.2719 -0.19147 40.0238 -0.119458 39.8078L2.76102 30.4302C2.85704 30.1182 3.07307 29.8621 3.37713 29.7181C3.53715 29.6461 3.70518 29.6061 3.87321 29.6061C4.01723 29.6061 4.17726 29.6381 4.32128 29.6941L12.6587 33.1507L14.0029 33.7108C14.387 33.8708 14.579 34.3189 14.419 34.7109L13.8749 36.0151C13.8749 36.0151 13.8589 36.0392 13.8589 36.0552L10.4023 44.4005L10.3943 44.3925ZM25.4288 32.7986L24.9327 34.0148C24.9327 34.0148 24.9327 34.0228 24.9327 34.0308L23.0924 38.5436V38.5596C22.7884 39.2877 22.3403 39.9278 21.7962 40.4559C21.7962 40.4559 21.7962 40.4639 21.7882 40.4639C21.5322 40.7119 21.2601 40.928 20.9641 41.12C20.892 41.168 20.82 41.216 20.748 41.256C20.732 41.264 20.716 41.272 20.7 41.28C20.644 41.312 20.58 41.344 20.516 41.384C20.484 41.4 20.452 41.416 20.412 41.4321C20.364 41.4561 20.3239 41.4801 20.2759 41.4961C20.1959 41.5281 20.1079 41.5761 20.0279 41.6081L11.5625 45.1127C11.3224 45.2087 11.0744 44.9686 11.1784 44.7206L14.643 36.3352C15.2511 34.895 16.3713 33.7828 17.8035 33.1747C17.8195 33.1667 17.8355 33.1587 17.8515 33.1507L26.2849 29.6541L26.453 29.5901C26.565 29.5421 26.677 29.4941 26.789 29.4301L25.4208 32.7986H25.4288ZM44.1199 12.5552L40.6153 21.0126C40.5833 21.1007 40.5433 21.1807 40.5033 21.2687C40.4873 21.3007 40.4713 21.3487 40.4473 21.3887C40.4313 21.4287 40.4073 21.4687 40.3913 21.5087C40.3593 21.5647 40.3273 21.6208 40.2953 21.6768C40.2873 21.7008 40.2713 21.7168 40.2633 21.7408C40.2233 21.8048 40.1753 21.8768 40.1353 21.9408C40.1353 21.9408 40.1272 21.9488 40.1272 21.9568C39.9352 22.2449 39.7192 22.5169 39.4791 22.7729C39.4791 22.7729 39.4711 22.7809 39.4711 22.7889C39.0151 23.269 38.471 23.6611 37.8549 23.9491C37.7589 23.9971 37.6548 24.0452 37.5508 24.0932L32.0219 26.4055L31.8139 26.4936L28.3653 27.9338C28.4613 27.7818 28.5333 27.6218 28.6053 27.4617L28.6693 27.3177C28.6693 27.3177 28.6773 27.3017 28.6853 27.2937L32.1739 18.8603C32.1739 18.8603 32.1979 18.7963 32.2139 18.7563C32.798 17.348 33.8862 16.2599 35.2784 15.6838L43.7359 12.1792C43.9759 12.0832 44.2239 12.3232 44.1199 12.5632V12.5552Z" fill="white"/>
<path opacity="0.4" d="M-0.132812 40.063V40.1831L-0.100807 40.1671C-0.11681 40.1351 -0.124811 40.095 -0.132812 40.071V40.063ZM45.3148 10.5861L45.1227 10.7061C45.1947 10.7061 45.2668 10.6981 45.3468 10.6901C45.3388 10.6581 45.3308 10.6181 45.3148 10.5781V10.5861Z" fill="white"/>
<path opacity="0.4" d="M31.4249 18.4237L27.8803 26.9771C27.8163 27.1051 27.7043 27.1131 27.6562 27.1131V5.4375C27.7683 5.4375 27.8803 5.49351 27.9283 5.62153C27.9283 5.62153 27.9283 5.62953 27.9283 5.63753L31.4009 14.0229C31.977 15.4392 31.985 16.9994 31.4249 18.4237Z" fill="white"/>
<path opacity="0.4" d="M44.1216 12.555L40.617 21.0124C40.585 21.1004 40.545 21.1804 40.505 21.2604C40.489 21.2925 40.465 21.3405 40.449 21.3805C40.433 21.4205 40.409 21.4605 40.393 21.5005C40.361 21.5565 40.329 21.6125 40.297 21.6685C40.289 21.6925 40.273 21.7085 40.265 21.7325C40.225 21.7965 40.177 21.8685 40.137 21.9326C40.137 21.9326 40.129 21.9406 40.129 21.9486C39.9369 22.2366 39.7209 22.5087 39.4809 22.7647C39.4809 22.7647 39.4728 22.7727 39.4728 22.7807C39.0168 23.2608 38.4727 23.6528 37.8646 23.9409C37.7686 23.9889 37.6645 24.0369 37.5605 24.0769L32.0316 26.3893L31.8236 26.4773L28.375 27.9176L44.0576 12.2109C44.1456 12.291 44.1936 12.411 44.1376 12.547L44.1216 12.555Z" fill="white"/>
<path opacity="0.4" d="M26.5729 27.5591L11.2344 12.2525C11.3144 12.1645 11.4344 12.1165 11.5704 12.1725H11.5784L19.9478 15.6451C21.3881 16.2532 22.5083 17.3734 23.1164 18.8056C23.1164 18.8216 23.1244 18.8376 23.1324 18.8536L26.6209 27.287C26.677 27.431 26.5969 27.5271 26.5649 27.5671L26.5729 27.5591Z" fill="white"/>
<path opacity="0.4" d="M26.125 28.6406H4.44141C4.44141 28.5366 4.50542 28.4166 4.62544 28.3686H4.63344L13.0268 24.896C14.4671 24.3119 16.0433 24.3199 17.4836 24.896C17.4996 24.896 17.5156 24.912 17.5316 24.92L25.965 28.4086C26.109 28.4726 26.125 28.6006 26.125 28.6486V28.6406Z" fill="white"/>
<path opacity="0.4" d="M26.7971 29.4297L11.2425 45.0403C11.1625 44.9603 11.1224 44.8403 11.1785 44.7202L14.651 36.3348C15.2511 34.8946 16.3793 33.7824 17.8116 33.1743C17.8276 33.1663 17.8436 33.1583 17.8596 33.1503L26.293 29.6537L26.461 29.5897C26.573 29.5417 26.685 29.4937 26.7971 29.4297Z" fill="white"/>
<path opacity="0.4" d="M9.70618 45.0413C9.39413 45.1533 9.05807 45.1293 8.77002 44.9773L0.104578 40.3845C0.0165635 40.3365 -0.0554486 40.2565 -0.103457 40.1685L-0.151465 40.1845V40.0645C-0.159466 39.9845 -0.159466 39.8964 -0.135462 39.8084L-0.111458 39.7284L2.73702 30.4309C2.83303 30.1188 3.04907 29.8628 3.35312 29.7188L6.51365 37.352L6.52965 37.384L9.69818 45.0333L9.70618 45.0413Z" fill="white"/>
<path opacity="0.4" d="M26.5679 4.37215L18.9346 7.54068L11.2534 10.7252C11.1413 10.4132 11.1653 10.0771 11.3174 9.78105L15.9101 1.10761C15.9661 1.00359 16.0542 0.931576 16.1582 0.891569C16.2142 0.867565 16.2782 0.851562 16.3422 0.851562C16.3902 0.851562 16.4382 0.851563 16.4782 0.867565L25.8558 3.74805C26.1678 3.84406 26.4239 4.0681 26.5679 4.36415V4.37215Z" fill="white"/>
<path opacity="0.4" d="M14.3978 34.1141L6.54849 37.3947L-0.0926169 40.1711L-0.140625 40.1871V40.0671L-0.0926169 39.7311L2.75586 30.4335C2.85187 30.1215 3.06791 29.8654 3.37196 29.7214C3.53199 29.6494 3.70001 29.6094 3.86804 29.6094C4.01207 29.6094 4.17209 29.6414 4.31612 29.6974L12.6535 33.154L13.9977 33.7141C14.1898 33.7941 14.3258 33.9381 14.4058 34.1141H14.3978Z" fill="white"/>
<path opacity="0.4" d="M26.5662 4.37196C26.7102 4.67601 26.7182 5.00407 26.5902 5.31612L23.1336 13.6535L22.5735 14.9977C22.5015 15.1738 22.3735 15.3098 22.2054 15.3898L18.9249 7.54049L16.1484 0.899382C16.2044 0.875378 16.2685 0.859375 16.3325 0.859375C16.3805 0.859375 16.4285 0.859375 16.4685 0.875378L25.8461 3.75586C26.1581 3.85187 26.4141 4.07591 26.5582 4.37196H26.5662Z" fill="white"/>
<path opacity="0.4" d="M11.5706 22.0135L3.36925 27.5664C3.0652 27.4224 2.84917 27.1744 2.75315 26.8543L-0.127328 17.4768C-0.159333 17.3807 -0.151332 17.2767 -0.127328 17.1807L-0.0793199 17.0847C-0.0313119 17.0047 0.0246975 16.9407 0.112712 16.9007L8.77816 12.3079C8.94618 12.2199 9.13022 12.1719 9.32225 12.1719C9.45027 12.1719 9.58629 12.1959 9.71431 12.2439L11.5706 22.0135Z" fill="white"/>
<path opacity="0.4" d="M43.9769 9.77402C44.1369 10.0701 44.1609 10.4061 44.0409 10.7182L34.3193 12.5825L28.7344 4.37312C28.8784 4.06907 29.1344 3.85304 29.4465 3.75702L38.8241 0.876539C38.9681 0.828531 39.1041 0.852535 39.2241 0.924547C39.2961 0.972555 39.3521 1.02856 39.3922 1.10858L43.9849 9.77402H43.9769Z" fill="white"/>
<path opacity="0.4" d="M43.9769 9.77402C44.1369 10.0701 44.1609 10.4061 44.0409 10.7182L34.3193 12.5825L28.7344 4.37312C28.8784 4.06907 29.1344 3.85304 29.4465 3.75702L38.8241 0.876539C38.9681 0.828531 39.1041 0.852535 39.2241 0.924547C39.2961 0.972555 39.3521 1.02856 39.3922 1.10858L43.9849 9.77402H43.9769Z" fill="#FAD9A1"/>
<path opacity="0.4" d="M14.3894 23.1737L11.573 22.0135L-0.125 17.1807L-0.0769919 17.0847C-0.0289839 17.0047 0.0270254 16.9407 0.11504 16.9007L8.78048 12.3079C8.94851 12.2199 9.14054 12.1719 9.32458 12.1719C9.4526 12.1719 9.58862 12.1959 9.71664 12.2439C10.0287 12.3559 10.2687 12.5879 10.3968 12.892L14.4054 22.5736C14.4854 22.7736 14.4774 22.9897 14.3894 23.1737Z" fill="white"/>
<path opacity="0.4" d="M44.0427 10.7153C43.9307 11.0274 43.6987 11.2674 43.3946 11.3954L33.713 15.4041C33.521 15.4841 33.3129 15.4841 33.1289 15.4041L34.3131 12.5796L39.2099 0.929688C39.2819 0.977695 39.3379 1.0337 39.3779 1.11372L43.9707 9.77916C44.1307 10.0752 44.1547 10.4113 44.0347 10.7233L44.0427 10.7153Z" fill="#FFFACC" fill-opacity="0.79"/>
<path d="M45.1295 10.3057L40.1046 0.832139C39.7606 0.168028 38.9845 -0.152025 38.2723 0.072012L28.3267 3.12052C27.7266 3.30455 27.0945 3.30455 26.5104 3.12052L16.5727 0.0640107C16.4207 0.0160027 16.2687 0 16.1166 0C15.5485 0 15.0125 0.304051 14.7404 0.824137L9.8676 10.0097C9.57155 10.5698 9.12348 11.0178 8.57939 11.3059L-0.614145 16.1867C-1.27025 16.5308 -1.59031 17.2989 -1.37427 18.019L1.68224 27.9647C1.85827 28.5648 1.85827 29.1969 1.68224 29.789L-1.37427 39.7186C-1.59831 40.4307 -1.27826 41.1989 -0.614145 41.5509L8.86744 46.5758C9.49154 46.9118 10.2517 46.9518 10.9158 46.6718L20.3253 42.7831C20.3894 42.7591 20.4534 42.7271 20.5014 42.6951L20.7974 42.5511C20.8534 42.5271 20.9014 42.4951 20.9655 42.4551L21.1015 42.3751C21.1415 42.3511 21.1895 42.3271 21.2295 42.295L21.3255 42.239C22.4617 41.4949 23.3418 40.4387 23.8539 39.1745L26.1903 33.4376C26.2543 33.2775 28.1266 28.5408 28.0546 28.3807C27.9906 28.2207 27.7586 28.8368 27.6066 28.7728C27.4465 28.7008 27.0865 28.5408 26.9344 28.6048C26.7744 28.6768 25.0541 32.7815 24.9981 32.9415L22.6297 38.7585C22.3337 39.4306 21.9256 40.0227 21.4055 40.5188L21.3495 40.5748C21.1255 40.7828 20.8774 40.9828 20.6054 41.1589C20.5334 41.2069 20.4694 41.2469 20.3974 41.2949L20.2773 41.3589C20.2773 41.3589 20.2293 41.3829 20.2053 41.3989L20.1573 41.4229C20.1573 41.4229 20.1253 41.4389 20.0933 41.4549L19.8933 41.5509C19.8453 41.5749 19.7973 41.5989 19.7412 41.6149L11.0998 45.1995L14.6364 36.6621C15.2125 35.2859 16.2927 34.2057 17.6689 33.6136L17.7169 33.5976L26.3263 30.029C27.3345 29.6129 28.1587 28.7888 28.5747 27.7806L32.1913 19.0592C32.7434 17.715 33.7916 16.6748 35.1358 16.1147L43.7533 12.5461L40.1607 21.2275C40.1366 21.2835 40.1046 21.3476 40.0806 21.3956L40.0166 21.5316C40.0166 21.5316 40.0006 21.5636 39.9766 21.6196L39.8886 21.7716L39.6886 22.0757V22.1077L39.6726 22.1317C39.5125 22.3717 39.3205 22.6118 39.1125 22.8278L39.0005 22.9398C38.5764 23.3559 38.0883 23.7 37.5442 23.964C37.4562 24.012 37.3522 24.052 37.2562 24.092L28.0786 27.9247C27.7746 28.0527 27.5505 28.4607 27.6306 28.7648C27.7026 29.0608 27.3345 29.0528 27.6306 29.0528C27.7186 29.0528 27.7826 29.0848 27.8546 29.0528L37.7523 25.2922C39.0085 24.7721 40.0566 23.908 40.8008 22.7798L40.8568 22.7158V22.6918L40.8968 22.6198C40.8968 22.6198 40.9368 22.5558 40.9528 22.5238C40.9688 22.4997 40.9848 22.4757 41.0088 22.4277L41.1368 22.1877C41.1368 22.1877 41.1688 22.1237 41.1848 22.0837L41.2968 21.8516C41.3288 21.7876 41.3608 21.7236 41.3849 21.6596L45.2335 12.3541C45.5055 11.6819 45.4735 10.9378 45.1375 10.2977L45.1295 10.3057ZM11.2838 10.1057L15.8766 1.44024C15.9326 1.35223 16.0206 1.30422 16.1486 1.30422H16.1807L25.5582 4.1927C25.8143 4.26471 26.0143 4.44074 26.1343 4.68078C26.2463 4.92882 26.2543 5.20087 26.1583 5.44891L22.1416 15.1385C22.0856 15.2665 21.9816 15.3706 21.8456 15.4346C21.7736 15.4586 21.7096 15.4746 21.6376 15.4746C21.5656 15.4746 21.4935 15.4586 21.4295 15.4346L11.7559 11.4259C11.5079 11.3219 11.3238 11.1219 11.2358 10.8738C11.1478 10.6178 11.1638 10.3457 11.2838 10.1137V10.1057ZM-0.134065 17.6269C-0.16607 17.5069 -0.118062 17.3869 -0.00604351 17.3229L8.6594 12.7221C8.89944 12.5941 9.17149 12.5781 9.41953 12.6741C9.66757 12.7621 9.8676 12.9462 9.97162 13.1942L13.9803 22.8678C14.0923 23.1479 13.9643 23.4599 13.6922 23.5799L4.00262 27.5886C3.8826 27.6366 3.77059 27.6606 3.64256 27.6606C3.50654 27.6606 3.37852 27.6286 3.2425 27.5726C3.00246 27.4526 2.83443 27.2605 2.74642 27.0045L-0.134065 17.6269ZM13.9723 34.8458L9.95562 44.5274C9.8596 44.7755 9.65957 44.9595 9.40352 45.0475C9.29951 45.0875 9.19549 45.1035 9.08347 45.1035C8.93145 45.1035 8.78742 45.0715 8.6514 44.9915L-0.0140448 40.4067C-0.126064 40.3507 -0.174071 40.2147 -0.134065 40.0947L2.74642 30.7171C2.82643 30.4611 3.00246 30.261 3.2345 30.149C3.47454 30.037 3.73858 30.029 3.99462 30.125L13.6762 34.1417C13.9483 34.2617 14.0843 34.5738 13.9723 34.8458ZM17.2288 32.3734L17.1888 32.3894C16.4847 32.6774 15.7486 32.8215 15.0125 32.8215C14.2763 32.8215 13.5322 32.6774 12.8281 32.3894L4.62673 28.9808V28.7248L12.8761 25.3082C14.2603 24.7561 15.7886 24.7561 17.1728 25.3082L25.4782 28.7488L25.6702 28.8688L17.2288 32.3654V32.3734ZM17.7409 24.14C17.7409 24.14 17.6849 24.116 17.6689 24.116C16.2687 23.5079 15.1885 22.4197 14.6124 21.0355L11.0918 12.5301L19.6292 16.0667C21.0055 16.6508 22.0856 17.723 22.6697 19.0912C22.6857 19.1232 22.6857 19.1472 22.6937 19.1552L26.2143 27.6526L17.7329 24.14H17.7409ZM30.9831 18.5551L27.4225 27.1565L23.8779 18.5951C23.3178 17.2029 23.3258 15.6666 23.9019 14.2744L27.4225 5.76896L30.9671 14.3224C31.5192 15.6826 31.5272 17.1789 30.9831 18.5551ZM43.6012 10.8498C43.5212 11.1059 43.3292 11.2979 43.0811 11.4019L33.3995 15.4106C33.3275 15.4346 33.2635 15.4426 33.1915 15.4426C33.1195 15.4426 33.0555 15.4266 32.9915 15.4026C32.8554 15.3466 32.7514 15.2425 32.6954 15.1065L28.6867 5.4249C28.5827 5.18486 28.5907 4.91282 28.7027 4.68078C28.8228 4.44074 29.0228 4.25671 29.2788 4.1847L38.6564 1.30422C38.6564 1.30422 38.7124 1.28821 38.7364 1.28821C38.8324 1.28821 38.9204 1.34422 38.9605 1.42424L43.5532 10.0977C43.6252 10.2257 43.6572 10.3697 43.6572 10.5218C43.6572 10.6418 43.6412 10.7538 43.6012 10.8498Z" fill="white"/>
<path opacity="0.38" d="M43.9845 9.8209C44.1446 10.1169 44.1686 10.453 44.0565 10.7651L34.3349 12.6294L28.75 4.42C28.894 4.11595 29.1421 3.89991 29.4621 3.80389L38.8397 0.923414C38.9837 0.875406 39.1197 0.89941 39.2397 0.971422C39.3118 1.01943 39.3678 1.08344 39.4078 1.15545L44.0005 9.8209H43.9845Z" fill="#FFFA87" fill-opacity="0.19"/>
</g>
</g>
<defs>
<filter id="filter0_b_1298_5614" x="-4" y="-4" width="138.902" height="56" filterUnits="userSpaceOnUse" color-interpolation-filters="sRGB">
<feFlood flood-opacity="0" result="BackgroundImageFix"/>
<feGaussianBlur in="BackgroundImageFix" stdDeviation="2"/>
<feComposite in2="SourceAlpha" operator="in" result="effect1_backgroundBlur_1298_5614"/>
<feBlend mode="normal" in="SourceGraphic" in2="effect1_backgroundBlur_1298_5614" result="shape"/>
</filter>
<linearGradient id="paint0_linear_1298_5614" x1="33.2947" y1="-3.46343" x2="5.58606" y2="44.5286" gradientUnits="userSpaceOnUse">
<stop offset="0.1" stop-color="#FFF42F"/>
<stop offset="0.31" stop-color="#FFA232"/>
<stop offset="0.47" stop-color="#F450B2"/>
<stop offset="0.71" stop-color="#3FCBFF"/>
<stop offset="0.96" stop-color="#D0D81D"/>
</linearGradient>
<clipPath id="clip0_1298_5614">
<rect width="130.902" height="48" fill="white"/>
</clipPath>
</defs>
</svg>
